# xmcd CD database file
#
# Track frame offsets:
#	150
#	14810
#	27567
#	44662
#	62930
#	76351
#	86442
#	101112
#	117935
#	135560
#	149420
#	165374
#	177004
#	193987
#	210272
#	219636
#	229174
#	239491
#	251596
#	258370
#	269999
#
# Disc length: 3869 seconds
#
# Revision: 3
# Processed by: cddbd v1.5.2PL0 Copyright (c) Steve Scherf et al.
# Submitted via: Feurio! 1.68 - http://www.feurio.com
#
DISCID=410f1b15
DTITLE=Jazz House - Some MoJo
DYEAR=1900
DGENRE=Jazz Dancefloor
TTITLE0=Ella Fitzgerald - Sunshine Of Your Love
TTITLE1=Little Stevie Wonder - Fingertips
TTITLE2=Johnny Almond Music Machine - Solar Level
TTITLE3=John Cameron - Troublemaker
TTITLE4=Lee Evans - Cinnamon And Cloove
TTITLE5=Galt MacDermot - Hair
TTITLE6=James Brown and Dee Felice Trio - Sunny
TTITLE7=Odetta - Hit Or Miss
TTITLE8=Michael Naura - Take Us Down To The River
TTITLE9=Manu Dibango - wouri
TTITLE10=Sergio Mendes and Brasil 66 - For What Is Worth
TTITLE11=Dave Pike - Sittin' On My Knees
TTITLE12=Jorge Ben - Ponta De Lanca Africano
TTITLE13=Fritz Pauer - Terra Samba
TTITLE14=Marcos Valle - Crickets Sing For Anamaria
TTITLE15=Bossa Rio - Saiupa
TTITLE16=Elis Regina - Zazueira
TTITLE17=Ronald Mesquita - Balanca Pema
TTITLE18=Astrud Gilberto - nao bate o coracao
TTITLE19=Tamba 4 - Samba Blim
TTITLE20=Dieter Reith - My Kind Of Sunshine
EXTD=
EXTT0=++
EXTT1=++
EXTT2=++
EXTT3=++
EXTT4=++
EXTT5=++
EXTT6=++
EXTT7=++
EXTT8=++
EXTT9=++
EXTT10=++
EXTT11=++
EXTT12=++
EXTT13=++
EXTT14=++
EXTT15=++
EXTT16=++
EXTT17=++
EXTT18=++
EXTT19=++
EXTT20=++
PLAYORDER=
